<svg width="32" height="32" viewBox="0 0 32 32" fill="none" xmlns="http://www.w3.org/2000/svg">
<path d="M25.815 22.667C26.8097 23.2751 27.3334 23.9648 27.3334 24.667C27.3334 25.3691 26.8097 26.0589 25.815 26.667C24.8203 27.2751 23.3896 27.78 21.6668 28.1311C19.9439 28.4822 17.9895 28.667 16.0001 28.667C14.0107 28.667 12.0563 28.4822 10.3334 28.1311C8.61053 27.78 7.17984 27.2751 6.18513 26.667C5.19042 26.0589 4.66675 25.3691 4.66675 24.667C4.66675 23.9648 5.19042 23.2751 6.18513 22.667" stroke="#0070FF" stroke-linecap="round"/>
<path d="M26 13.333C26 20.1765 18.3441 24.7416 16.4298 25.7761C16.1606 25.9216 15.8394 25.9216 15.5702 25.7761C13.6559 24.7416 6 20.1765 6 13.333C6 7.33301 10.8453 3.33301 16 3.33301C21.3333 3.33301 26 7.33301 26 13.333Z" stroke="#0070FF"/>
<path d="M20.8334 13.3333C20.8334 16.0027 18.6695 18.1667 16.0001 18.1667C13.3307 18.1667 11.1667 16.0027 11.1667 13.3333C11.1667 10.664 13.3307 8.5 16.0001 8.5C18.6695 8.5 20.8334 10.664 20.8334 13.3333Z" stroke="#0070FF"/>
</svg>
