<svg width="32" height="32" viewBox="0 0 32 32" fill="none" xmlns="http://www.w3.org/2000/svg">
<path d="M6 22.6663H12C12.93 22.6663 13.395 22.6663 13.7765 22.7686C14.8117 23.046 15.6204 23.8546 15.8978 24.8899C16 25.2714 16 25.7364 16 26.6663V11.333C16 8.50458 16 7.09037 15.1213 6.21169C14.2426 5.33301 12.8284 5.33301 10 5.33301H6C5.05719 5.33301 4.58579 5.33301 4.29289 5.6259C4 5.91879 4 6.3902 4 7.33301V20.6663C4 21.6091 4 22.0806 4.29289 22.3734C4.58579 22.6663 5.05719 22.6663 6 22.6663Z" stroke="#0070FF"/>
<path d="M26 22.6663H20C19.07 22.6663 18.605 22.6663 18.2235 22.7686C17.1883 23.046 16.3796 23.8546 16.1022 24.8899C16 25.2714 16 25.7364 16 26.6663V11.333C16 8.50458 16 7.09037 16.8787 6.21169C17.7574 5.33301 19.1716 5.33301 22 5.33301H26C26.9428 5.33301 27.4142 5.33301 27.7071 5.6259C28 5.91879 28 6.3902 28 7.33301V20.6663C28 21.6091 28 22.0806 27.7071 22.3734C27.4142 22.6663 26.9428 22.6663 26 22.6663Z" stroke="#0070FF"/>
</svg>
