<svg width="29" height="29" viewBox="0 0 29 29" fill="none" xmlns="http://www.w3.org/2000/svg">
<path d="M19.354 16.8521L21.4443 19.9594C21.7254 20.3772 21.6146 20.9438 21.1967 21.2249C18.9377 22.7446 15.9049 22.372 14.081 20.3505L12.7617 18.8885C11.3017 17.2704 10.0791 15.453 9.1306 13.4908L8.27352 11.7178C7.08855 9.26653 7.88637 6.31695 10.1454 4.79723C10.5633 4.51613 11.1299 4.62699 11.411 5.04484L13.5013 8.15216C13.8096 8.61041 13.688 9.23179 13.2298 9.54006L12.0316 10.3461C11.8411 10.4742 11.7541 10.7098 11.8154 10.931C12.5242 13.488 14.0433 15.7461 16.1446 17.3664C16.3264 17.5066 16.5774 17.5147 16.7678 17.3866L17.9661 16.5805C18.4243 16.2722 19.0457 16.3938 19.354 16.8521Z" stroke="#0070FF"/>
</svg>
