<svg width="32" height="32" viewBox="0 0 32 32" fill="none" xmlns="http://www.w3.org/2000/svg">
<path d="M9.76075 4.4275C9.26184 4.9264 9.04043 5.55904 8.93534 6.34065C8.83323 7.10013 8.83324 8.07055 8.83325 9.29572L8.83325 9.33333V22.6667L8.83325 22.7043C8.83324 23.9295 8.83323 24.8999 8.93534 25.6593C9.04043 26.441 9.26184 27.0736 9.76075 27.5725C10.2597 28.0714 10.8923 28.2928 11.6739 28.3979C12.4334 28.5 13.4038 28.5 14.629 28.5H14.6666H17.3333H17.3709C18.596 28.5 19.5665 28.5 20.3259 28.3979C21.1075 28.2928 21.7402 28.0714 22.2391 27.5725C22.738 27.0736 22.9594 26.441 23.0645 25.6593C23.1666 24.8999 23.1666 23.9294 23.1666 22.7043V22.6667V9.33333V9.29574C23.1666 8.07056 23.1666 7.10013 23.0645 6.34065C22.9594 5.55904 22.738 4.9264 22.2391 4.4275C21.7402 3.92859 21.1075 3.70718 20.3259 3.60209C19.5665 3.49998 18.596 3.49999 17.3709 3.5L17.3333 3.5H14.6666L14.629 3.5C13.4038 3.49999 12.4334 3.49998 11.6739 3.60209C10.8923 3.70718 10.2597 3.92859 9.76075 4.4275Z" stroke="#0070FF"/>
<path d="M9.33325 21.333H22.6666" stroke="#0070FF"/>
</svg>
