<svg width="26" height="26" viewBox="0 0 26 26" fill="none" xmlns="http://www.w3.org/2000/svg">
<path d="M16.7917 11.375L13.5417 14.625L11.375 12.4583L8.12499 15.7083" stroke="#0D1E50" stroke-width="2" stroke-linecap="round" stroke-linejoin="round"/>
<path d="M15.1667 5.41667H7.53334C6.41324 5.41667 5.85319 5.41667 5.42536 5.63466C5.04904 5.82641 4.74308 6.13237 4.55133 6.50869C4.33334 6.93651 4.33334 7.49657 4.33334 8.61667V18.4667C4.33334 19.5868 4.33334 20.1468 4.55133 20.5747C4.74308 20.951 5.04904 21.2569 5.42536 21.4487C5.85319 21.6667 6.41324 21.6667 7.53334 21.6667H17.3833C18.5034 21.6667 19.0635 21.6667 19.4913 21.4487C19.8676 21.2569 20.1736 20.951 20.3654 20.5747C20.5833 20.1468 20.5833 19.5868 20.5833 18.4667V10.8333" stroke="#0D1E50" stroke-width="2" stroke-linecap="round"/>
<ellipse cx="20.5833" cy="5.41667" rx="2.16667" ry="2.16667" fill="#0D1E50"/>
</svg>
