<svg width="16" height="16" viewBox="0 0 16 16" fill="none" xmlns="http://www.w3.org/2000/svg">
<rect x="0.5" y="0.5" width="15" height="15" rx="3.5" fill="white" stroke="#0070FF"/>
<path d="M8.85446 4.54445L8.35694 4.59421V4.59421L8.85446 4.54445ZM9.83915 4.95233L10.1558 5.33931L10.1558 5.33931L9.83915 4.95233ZM10.6497 4.99276L11.0033 4.6392L11.0033 4.6392L10.6497 4.99276ZM11.0071 5.35014L11.3607 4.99659V4.99659L11.0071 5.35014ZM11.0475 6.16072L11.4345 6.47734L11.0475 6.16072ZM11.4554 7.14542L11.4057 7.64294L11.4554 7.14542ZM11.4555 8.85433L11.4057 8.35681L11.4555 8.85433ZM11.0476 9.83891L11.4346 9.52229L11.0476 9.83891ZM11.0072 10.6494L11.3607 11.0029L11.3607 11.0029L11.0072 10.6494ZM10.6497 11.0068L10.2962 10.6533L10.2962 10.6533L10.6497 11.0068ZM9.83917 11.0472L10.1558 10.6603L9.83917 11.0472ZM8.85447 11.4552L8.35695 11.4055L8.85447 11.4552ZM7.14554 11.4553L7.64306 11.4055V11.4055L7.14554 11.4553ZM6.16083 11.0474L6.47745 11.4344L6.16083 11.0474ZM5.35024 11.007L4.99669 11.3605H4.99669L5.35024 11.007ZM4.99287 10.6496L5.34642 10.2961L4.99287 10.6496ZM4.95244 9.83904L5.33942 10.1557L5.33942 10.1557L4.95244 9.83904ZM4.54457 8.85433L4.59432 8.35682H4.59432L4.54457 8.85433ZM4 7.74722L3.5 7.74722V7.74722H4ZM4.54462 7.14542L4.49487 6.6479H4.49487L4.54462 7.14542ZM4.95251 6.16061L5.33949 5.84399L5.33949 5.84399L4.95251 6.16061ZM4.99293 5.34991L4.63938 4.99636L4.99293 5.34991ZM5.35026 4.99259L4.99671 4.63903L5.35026 4.99259ZM6.16088 4.95218L5.84426 5.33916L6.16088 4.95218ZM7.14555 4.5444L6.64803 4.49465V4.49465L7.14555 4.5444ZM9.35198 4.4947C9.2955 3.92995 8.82028 3.49988 8.25271 3.49988V4.49988C8.30652 4.49988 8.35158 4.54066 8.35694 4.59421L9.35198 4.4947ZM9.52253 4.56535C9.45786 4.61827 9.36029 4.57786 9.35198 4.4947L8.35694 4.59421C8.44464 5.47121 9.47361 5.89744 10.1558 5.33931L9.52253 4.56535ZM11.0033 4.6392C10.6019 4.23788 9.9618 4.20595 9.52253 4.56535L10.1558 5.33931C10.1974 5.30523 10.2581 5.30826 10.2962 5.34631L11.0033 4.6392ZM11.3607 4.99659L11.0033 4.6392L10.2962 5.34631L10.6535 5.7037L11.3607 4.99659ZM11.4345 6.47734C11.7939 6.03806 11.762 5.39792 11.3607 4.99659L10.6535 5.7037C10.6916 5.74175 10.6946 5.80245 10.6606 5.8441L11.4345 6.47734ZM11.5052 6.6479C11.422 6.63958 11.3816 6.54201 11.4345 6.47734L10.6606 5.8441C10.1024 6.52627 10.5287 7.55524 11.4057 7.64294L11.5052 6.6479ZM12.5 7.74718C12.5 7.1796 12.0699 6.70438 11.5052 6.6479L11.4057 7.64294C11.4592 7.64829 11.5 7.69336 11.5 7.74718H12.5ZM12.5 8.25263V7.74718H11.5V8.25263H12.5ZM11.5052 9.35185C12.0699 9.29538 12.5 8.82019 12.5 8.25263H11.5C11.5 8.3064 11.4592 8.35146 11.4057 8.35681L11.5052 9.35185ZM11.4346 9.52229C11.3817 9.4577 11.4221 9.36017 11.5052 9.35185L11.4057 8.35681C10.5288 8.4445 10.1025 9.47338 10.6606 10.1555L11.4346 9.52229ZM11.3607 11.0029C11.762 10.6016 11.794 9.96154 11.4346 9.52229L10.6606 10.1555C10.6947 10.1972 10.6916 10.2578 10.6536 10.2958L11.3607 11.0029ZM11.0033 11.3604L11.3607 11.0029L10.6536 10.2958L10.2962 10.6533L11.0033 11.3604ZM9.52255 11.4342C9.96182 11.7936 10.602 11.7617 11.0033 11.3604L10.2962 10.6533C10.2581 10.6913 10.1974 10.6943 10.1558 10.6603L9.52255 11.4342ZM9.35199 11.505C9.36031 11.4217 9.45797 11.3814 9.52255 11.4342L10.1558 10.6603C9.47354 10.1021 8.44464 10.5286 8.35695 11.4055L9.35199 11.505ZM8.25265 12.4999C8.82029 12.4999 9.29551 12.0697 9.35199 11.505L8.35695 11.4055C8.35159 11.4591 8.30646 11.4999 8.25265 11.4999V12.4999ZM7.7473 12.4999H8.25265V11.4999H7.7473V12.4999ZM6.64802 11.505C6.7045 12.0698 7.17973 12.4999 7.7473 12.4999V11.4999C7.69348 11.4999 7.64842 11.4591 7.64306 11.4055L6.64802 11.505ZM6.47745 11.4344C6.54214 11.3815 6.63971 11.4219 6.64802 11.505L7.64306 11.4055C7.55536 10.5285 6.52637 10.1023 5.84421 10.6604L6.47745 11.4344ZM4.99669 11.3605C5.39802 11.7619 6.03817 11.7938 6.47745 11.4344L5.84421 10.6604C5.80256 10.6945 5.74185 10.6915 5.7038 10.6534L4.99669 11.3605ZM4.63931 11.0032L4.99669 11.3605L5.7038 10.6534L5.34642 10.2961L4.63931 11.0032ZM4.56546 9.52242C4.20606 9.96169 4.23798 10.6018 4.63931 11.0032L5.34642 10.2961C5.30837 10.258 5.30534 10.1973 5.33942 10.1557L4.56546 9.52242ZM4.49482 9.35185C4.57796 9.36017 4.61839 9.45773 4.56546 9.52242L5.33942 10.1557C5.89754 9.47351 5.47135 8.44452 4.59432 8.35682L4.49482 9.35185ZM3.5 8.25259C3.5 8.82015 3.93007 9.29538 4.49482 9.35185L4.59432 8.35682C4.54078 8.35146 4.5 8.3064 4.5 8.25259H3.5ZM3.5 7.74722V8.25259H4.5V7.74722H3.5ZM4.49487 6.6479C3.93009 6.70437 3.5 7.17962 3.5 7.74722L4.5 7.74722C4.5 7.69337 4.5408 7.64829 4.59437 7.64293L4.49487 6.6479ZM4.56553 6.47722C4.61851 6.54198 4.57802 6.63958 4.49487 6.6479L4.59437 7.64293C5.47148 7.55522 5.89761 6.52614 5.33949 5.84399L4.56553 6.47722ZM4.63938 4.99636C4.23801 5.39773 4.20611 6.03793 4.56553 6.47722L5.33949 5.84399C5.30538 5.80229 5.30842 5.74154 5.34649 5.70347L4.63938 4.99636ZM4.99671 4.63903L4.63938 4.99636L5.34649 5.70347L5.70381 5.34614L4.99671 4.63903ZM6.4775 4.5652C6.03825 4.20582 5.39807 4.23767 4.99671 4.63903L5.70381 5.34614C5.74184 5.30811 5.80257 5.30505 5.84426 5.33916L6.4775 4.5652ZM6.64803 4.49465C6.63973 4.57763 6.54224 4.61817 6.4775 4.5652L5.84426 5.33916C6.52628 5.89718 7.55536 5.47124 7.64307 4.59415L6.64803 4.49465ZM7.74724 3.49988C7.1797 3.49988 6.7045 3.92993 6.64803 4.49465L7.64307 4.59415C7.64842 4.54063 7.69345 4.49988 7.74724 4.49988V3.49988ZM8.25271 3.49988H7.74724V4.49988H8.25271V3.49988ZM9.1 7.99988C9.1 8.60739 8.60751 9.09988 8 9.09988V10.0999C9.1598 10.0999 10.1 9.15968 10.1 7.99988H9.1ZM8 6.89988C8.60751 6.89988 9.1 7.39236 9.1 7.99988H10.1C10.1 6.84008 9.1598 5.89988 8 5.89988V6.89988ZM6.9 7.99988C6.9 7.39236 7.39249 6.89988 8 6.89988V5.89988C6.8402 5.89988 5.9 6.84008 5.9 7.99988H6.9ZM8 9.09988C7.39249 9.09988 6.9 8.60739 6.9 7.99988H5.9C5.9 9.15968 6.8402 10.0999 8 10.0999V9.09988Z" fill="#0070FF"/>
</svg>
