<svg width="5" height="22" viewBox="0 0 5 22" fill="none" xmlns="http://www.w3.org/2000/svg">
<path d="M5 19.4615C5 20.1348 4.73661 20.7804 4.26777 21.2565C3.79893 21.7326 3.16304 22 2.5 22C1.83696 22 1.20107 21.7326 0.732233 21.2565C0.263392 20.7804 -5.04702e-08 20.1348 -6.86871e-08 19.4615C-8.69041e-08 18.7883 0.263392 18.1426 0.732233 17.6666C1.20107 17.1905 1.83696 16.9231 2.5 16.9231C3.16304 16.9231 3.79893 17.1905 4.26777 17.6666C4.73661 18.1426 5 18.7883 5 19.4615ZM5 11C5 11.6732 4.73661 12.3189 4.26777 12.795C3.79893 13.271 3.16304 13.5385 2.5 13.5385C1.83696 13.5385 1.20107 13.271 0.732233 12.795C0.263392 12.3189 -2.79427e-07 11.6732 -2.97644e-07 11C-3.15861e-07 10.3268 0.263391 9.68109 0.732232 9.20504C1.20107 8.72898 1.83696 8.46154 2.5 8.46154C3.16304 8.46154 3.79893 8.72898 4.26777 9.20504C4.73661 9.68109 5 10.3268 5 11ZM5 2.53846C5 3.2117 4.73661 3.85737 4.26777 4.33343C3.79893 4.80948 3.16304 5.07692 2.5 5.07692C1.83696 5.07692 1.20107 4.80948 0.732232 4.33343C0.263391 3.85737 -5.08384e-07 3.2117 -5.26601e-07 2.53846C-5.44818e-07 1.86522 0.263391 1.21955 0.732232 0.743498C1.20107 0.267445 1.83696 -1.29713e-07 2.5 -1.76532e-07C3.16304 -2.23352e-07 3.79893 0.267444 4.26777 0.743498C4.73661 1.21955 5 1.86522 5 2.53846Z" fill="#A2A7B4"/>
</svg>
