<svg width="24" height="24" viewBox="0 0 24 24" fill="none" xmlns="http://www.w3.org/2000/svg">
<g clip-path="url(#clip0_1_25848)">
<path d="M12.4298 19.005L5.90881 19.937L5.73281 18.941L3.08081 3.91105L14.2498 2.05005L20.0968 1.07605L22.0078 11.591C22.0568 11.863 22.3238 12.043 22.5898 11.993C22.8608 11.944 23.0408 11.683 22.9918 11.412L20.9918 0.412047C20.9418 0.143047 20.6818 -0.0389535 20.4178 0.00804651L14.1448 1.05305L1.54181 0.00304651C1.39781 -0.0129535 1.27281 0.0350465 1.17181 0.124047C1.06981 0.212047 1.00781 0.338046 1.00081 0.473047L0.00081016 18.473C-0.0141898 18.738 0.18081 18.969 0.44381 18.998L4.81281 19.484L5.00781 20.588C5.04981 20.83 5.26081 21.001 5.49881 21.001C5.52181 21.001 5.54681 21 5.56981 20.996L12.5698 19.996C12.8428 19.957 13.0338 19.704 12.9948 19.43C12.9558 19.156 12.6978 18.967 12.4298 19.005ZM13.1458 21.146C13.0518 21.24 12.9998 21.367 12.9998 21.5V23.5C12.9998 23.776 13.2238 24 13.4998 24H15.4998C15.6328 24 15.7598 23.947 15.8538 23.854L21.4998 18.208L18.7928 15.501L13.1458 21.146ZM23.8538 15.146L21.8538 13.146C21.6588 12.951 21.3418 12.951 21.1468 13.146L19.5008 14.792L22.2078 17.499L23.8538 15.853C24.0488 15.658 24.0488 15.342 23.8538 15.146Z" fill="#0D1E50"/>
</g>
<defs>
<clipPath id="clip0_1_25848">
<rect width="24" height="24" fill="white"/>
</clipPath>
</defs>
</svg>
