<svg width="32" height="32" viewBox="0 0 32 32" fill="none" xmlns="http://www.w3.org/2000/svg">
<path d="M4 8C4 6.11438 4 5.17157 4.58579 4.58579C5.17157 4 6.11438 4 8 4H24C25.8856 4 26.8284 4 27.4142 4.58579C28 5.17157 28 6.11438 28 8V24C28 25.8856 28 26.8284 27.4142 27.4142C26.8284 28 25.8856 28 24 28H8C6.11438 28 5.17157 28 4.58579 27.4142C4 26.8284 4 25.8856 4 24V8Z" stroke="#0070FF"/>
<path d="M4 13.333V13.333C4 15.2186 4 16.1614 4.58579 16.7472C5.17157 17.333 6.11438 17.333 8 17.333H9.22515C9.92087 17.333 10.2687 17.333 10.5306 17.5218C10.7925 17.7105 10.9025 18.0405 11.1225 18.7006L11.5442 19.9655C11.7642 20.6255 11.8742 20.9555 12.136 21.1443C12.3979 21.333 12.7458 21.333 13.4415 21.333H18.5585C19.2542 21.333 19.6021 21.333 19.864 21.1443C20.1258 20.9555 20.2358 20.6255 20.4558 19.9655L20.8775 18.7006C21.0975 18.0405 21.2075 17.7105 21.4694 17.5218C21.7313 17.333 22.0791 17.333 22.7749 17.333H24C25.8856 17.333 26.8284 17.333 27.4142 16.7472C28 16.1614 28 15.2186 28 13.333V13.333" stroke="#0070FF"/>
</svg>
