<svg width="32" height="32" viewBox="0 0 32 32" fill="none" xmlns="http://www.w3.org/2000/svg">
<path d="M20.3333 10.6667C20.3333 13.0599 18.3932 15 16 15C13.6068 15 11.6667 13.0599 11.6667 10.6667C11.6667 8.27344 13.6068 6.33334 16 6.33334C18.3932 6.33334 20.3333 8.27344 20.3333 10.6667Z" stroke="#0D1E50" stroke-width="2" stroke-linecap="round"/>
<path d="M20.0686 10.5C20.4664 9.81095 21.1217 9.30815 21.8902 9.10222C22.6587 8.89629 23.4776 9.0041 24.1667 9.40192C24.8557 9.79975 25.3585 10.455 25.5644 11.2235C25.7704 11.9921 25.6626 12.8109 25.2647 13.5C24.8669 14.1891 24.2117 14.6918 23.4431 14.8978C22.6746 15.1037 21.8557 14.9959 21.1667 14.5981C20.4776 14.2003 19.9748 13.545 19.7689 12.7765C19.5629 12.0079 19.6708 11.1891 20.0686 10.5L20.0686 10.5Z" stroke="#0D1E50" stroke-width="2"/>
<path d="M6.73527 10.5C7.13309 9.81095 7.78835 9.30815 8.55689 9.10222C9.32542 8.89629 10.1443 9.0041 10.8333 9.40192C11.5224 9.79975 12.0252 10.455 12.2311 11.2235C12.437 11.9921 12.3292 12.8109 11.9314 13.5C11.5336 14.1891 10.8783 14.6918 10.1098 14.8978C9.34126 15.1037 8.5224 14.9959 7.83334 14.5981C7.14429 14.2003 6.6415 13.545 6.43557 12.7765C6.22964 12.0079 6.33744 11.1891 6.73527 10.5L6.73527 10.5Z" stroke="#0D1E50" stroke-width="2"/>
<path d="M22.5088 24L21.5285 24.1974L21.6902 25H22.5088V24ZM27.7458 22.899L26.7895 23.1914L26.7895 23.1914L27.7458 22.899ZM19.7078 19.614L19.1029 18.8177L17.9463 19.6962L19.1796 20.4632L19.7078 19.614ZM26.8672 23H22.5088V25H26.8672V23ZM26.7895 23.1914C26.7848 23.1762 26.7807 23.1462 26.7883 23.1097C26.7955 23.0752 26.8101 23.0489 26.8241 23.0318C26.8514 22.9986 26.874 23 26.8672 23V25C28.0294 25 29.1058 23.9272 28.7021 22.6066L26.7895 23.1914ZM22.6667 19.6667C25.2591 19.6667 26.3385 21.7163 26.7895 23.1914L28.7021 22.6066C28.1981 20.9584 26.679 17.6667 22.6667 17.6667V19.6667ZM20.3126 20.4104C20.8823 19.9777 21.6353 19.6667 22.6667 19.6667V17.6667C21.1915 17.6667 20.0149 18.125 19.1029 18.8177L20.3126 20.4104ZM19.1796 20.4632C20.68 21.3964 21.2889 23.0079 21.5285 24.1974L23.4891 23.8026C23.2058 22.3958 22.4256 20.1268 20.2359 18.7649L19.1796 20.4632Z" fill="#0D1E50"/>
<path d="M12.2922 19.614L12.8204 20.4632L14.0537 19.6962L12.8971 18.8177L12.2922 19.614ZM4.25424 22.899L3.29794 22.6066L3.29794 22.6066L4.25424 22.899ZM9.49113 24V25H10.3098L10.4714 24.1974L9.49113 24ZM9.33334 19.6667C10.3647 19.6667 11.1177 19.9777 11.6874 20.4104L12.8971 18.8177C11.9851 18.125 10.8085 17.6667 9.33334 17.6667V19.6667ZM5.21054 23.1914C5.66154 21.7163 6.74097 19.6667 9.33334 19.6667V17.6667C5.32105 17.6667 3.80186 20.9584 3.29794 22.6066L5.21054 23.1914ZM5.13278 23C5.12598 23 5.14864 22.9986 5.17586 23.0318C5.18985 23.0489 5.20452 23.0752 5.2117 23.1097C5.21931 23.1462 5.21518 23.1762 5.21054 23.1914L3.29794 22.6066C2.89414 23.9272 3.97062 25 5.13278 25V23ZM9.49113 23H5.13278V25H9.49113V23ZM10.4714 24.1974C10.711 23.0079 11.3199 21.3964 12.8204 20.4632L11.7641 18.7649C9.57435 20.1267 8.79413 22.3958 8.51081 23.8026L10.4714 24.1974Z" fill="#0D1E50"/>
<path d="M16 18.6667C21.0439 18.6667 22.2716 22.4827 22.5705 24.3406C22.6582 24.8858 22.219 25.3333 21.6667 25.3333H10.3333C9.78106 25.3333 9.34178 24.8858 9.4295 24.3406C9.72838 22.4827 10.9562 18.6667 16 18.6667Z" stroke="#0D1E50" stroke-width="2" stroke-linecap="round"/>
</svg>
